<?xml version="1.0" encoding="UTF-8" standalone="no"?>
<svg
   xmlns:dc="http://purl.org/dc/elements/1.1/"
   xmlns:cc="http://creativecommons.org/ns#"
   xmlns:rdf="http://www.w3.org/1999/02/22-rdf-syntax-ns#"
   xmlns:svg="http://www.w3.org/2000/svg"
   xmlns="http://www.w3.org/2000/svg"
   xmlns:sodipodi="http://sodipodi.sourceforge.net/DTD/sodipodi-0.dtd"
   xmlns:inkscape="http://www.inkscape.org/namespaces/inkscape"
   height="1024"
   width="1024"
   version="1.1"
   id="svg4"
   sodipodi:docname="law.svg"
   inkscape:version="0.92.4 (5da689c313, 2019-01-14)">
  <metadata
     id="metadata10">
    <rdf:RDF>
      <cc:Work
         rdf:about="">
        <dc:format>image/svg+xml</dc:format>
        <dc:type
           rdf:resource="http://purl.org/dc/dcmitype/StillImage" />
      </cc:Work>
    </rdf:RDF>
  </metadata>
  <defs
     id="defs8" />
  <sodipodi:namedview
     pagecolor="#ffffff"
     bordercolor="#666666"
     borderopacity="1"
     objecttolerance="10"
     gridtolerance="10"
     guidetolerance="10"
     inkscape:pageopacity="0"
     inkscape:pageshadow="2"
     inkscape:window-width="2560"
     inkscape:window-height="1330"
     id="namedview6"
     showgrid="false"
     inkscape:zoom="0.921875"
     inkscape:cx="270.10169"
     inkscape:cy="555.38983"
     inkscape:window-x="2228"
     inkscape:window-y="-12"
     inkscape:window-maximized="1"
     inkscape:current-layer="svg4" />
  <path
     d="M514 192c34-1 61-28 62-62 1-37-29-67-66-66-34 1-61 28-62 62-1 37 29 67 66 66z m464 384h-18l-127-246c18-2 36-9 52-16 24-11 29-43 11-62l-1-1c-11-11-28-15-43-8-14 6-34 13-53 13-56 0-81-64-287-64s-231 64-287 64c-20 0-39-6-53-13-15-6-32-3-43 8l-1 1c-18 19-13 50 11 62 16 8 34 14 52 16l-127 246h-18c-8 0-14 7-13 15 11 64 92 113 191 113s180-49 191-113c1-8-5-15-13-15h-18l-127-245c83-7 127-49 191-49v486c-35 0-64 29-64 64h-71c-28 0-57 29-57 64h512c0-35-29-64-71-64h-57c0-35-29-64-64-64v-486c64 0 108 42 191 49l-127 245h-18c-8 0-14 7-13 15 11 64 92 113 191 113s180-49 191-113c1-8-5-15-13-15z m-658 0h-192l96-180 96 180z m384 0l96-180 96 180h-192z"
     id="path2"
     style="fill:#999999" />
</svg>
