<?xml version="1.0" encoding="UTF-8" standalone="no"?>
<svg
   xmlns:dc="http://purl.org/dc/elements/1.1/"
   xmlns:cc="http://creativecommons.org/ns#"
   xmlns:rdf="http://www.w3.org/1999/02/22-rdf-syntax-ns#"
   xmlns:svg="http://www.w3.org/2000/svg"
   xmlns="http://www.w3.org/2000/svg"
   xmlns:sodipodi="http://sodipodi.sourceforge.net/DTD/sodipodi-0.dtd"
   xmlns:inkscape="http://www.inkscape.org/namespaces/inkscape"
   height="128px"
   style="shape-rendering:geometricPrecision; text-rendering:geometricPrecision; image-rendering:optimizeQuality; fill-rule:evenodd; clip-rule:evenodd"
   version="1.0"
   viewBox="0 0 7183 11872"
   width="77px"
   xml:space="preserve"
   id="svg9"
   sodipodi:docname="profile.svg"
   inkscape:version="0.92.4 (5da689c313, 2019-01-14)"><metadata
     id="metadata13"><rdf:RDF><cc:Work
         rdf:about=""><dc:format>image/svg+xml</dc:format><dc:type
           rdf:resource="http://purl.org/dc/dcmitype/StillImage" /><dc:title /></cc:Work></rdf:RDF></metadata><sodipodi:namedview
     pagecolor="#ffffff"
     bordercolor="#666666"
     borderopacity="1"
     objecttolerance="10"
     gridtolerance="10"
     guidetolerance="10"
     inkscape:pageopacity="0"
     inkscape:pageshadow="2"
     inkscape:window-width="2560"
     inkscape:window-height="1330"
     id="namedview11"
     showgrid="false"
     inkscape:pagecheckerboard="true"
     inkscape:zoom="7.375"
     inkscape:cx="38.5"
     inkscape:cy="64"
     inkscape:window-x="2228"
     inkscape:window-y="-12"
     inkscape:window-maximized="1"
     inkscape:current-layer="svg9" /><defs
     id="defs4"><style
       type="text/css"
       id="style2">
   <![CDATA[
    .fil0 {fill:#E6C131}
   ]]>
  </style></defs><g
     id="Layer_x0020_1"
     style="fill:#2c5aa0"><path
       class="fil0"
       d="M3420 0l342 0c968,0 1759,792 1759,1759l0 1319c0,968 -791,1759 -1759,1759l-342 0c-967,0 -1759,-791 -1759,-1759l0 -1319c0,-967 792,-1759 1759,-1759zm171 11872l-585 -777 268 -4082 317 0 317 0 268 4082 -585 777zm-2174 -6204l1011 0 343 544c137,219 177,457 117,708 -5,22 -9,44 -10,67l-268 4082c-1,8 -1,17 -1,26l-2609 0 0 -4010c0,-779 638,-1417 1417,-1417zm3338 0l1011 0c779,0 1417,638 1417,1417l0 4010 -2609 0c0,-9 -1,-18 -1,-26l-268 -4082c-2,-23 -5,-45 -10,-67 -60,-251 -21,-489 117,-708l343 -544z"
       id="path6"
       style="fill:#2c5aa0" /></g><path
     style="fill:#2c5aa0;stroke-width:0.13559322;fill-opacity:1"
     d="m 35.355786,123.35593 -3.072974,-4.10169 1.411059,-21.423731 C 34.469954,86.047458 35.10611,76.238983 35.10755,76.033898 l 0.0026,-0.372881 H 38.5 41.889831 l 0.0046,0.508475 c 0.0025,0.279661 0.637,10.088135 1.409918,21.79661 l 1.405307,21.288138 -3.069214,4.10169 c -1.688067,2.25593 -3.101271,4.1017 -3.140453,4.1017 -0.03918,0 -1.454078,-1.84577 -3.144214,-4.1017 z"
     id="path9"
     inkscape:connector-curvature="0"
     transform="matrix(93.285714,0,0,93.285714,0,-34.285714)" /><path
     style="fill:#2c5aa0;stroke-width:0.13559322"
     d="M 34.771186,52.063104 C 27.500666,51.248955 21.285538,46.327732 18.932459,39.521783 17.93356,36.632607 17.957627,36.958907 17.957627,26.305085 c 0,-8.810509 0.01972,-9.649046 0.251676,-10.704735 0.83984,-3.822225 2.532581,-6.9399232 5.233743,-9.6395337 2.681609,-2.6800687 5.762466,-4.3465041 9.565429,-5.17394029 1.577031,-0.34312531 6.893841,-0.492986 9.141338,-0.2576596 7.344077,0.76896909 13.518186,5.64401419 15.914308,12.56585959 0.990131,2.860264 0.978252,2.699841 0.978252,13.210009 0,10.385129 0.01827,10.119208 -0.890083,12.9549 -2.037806,6.361612 -7.832462,11.378469 -14.567544,12.612186 -1.430495,0.262035 -7.084735,0.384526 -8.81356,0.190933 z"
     id="path15"
     inkscape:connector-curvature="0"
     transform="matrix(93.285714,0,0,93.285714,0,-34.285714)" /><path
     style="fill:#2c5aa0;fill-opacity:1;stroke-width:0.13559322"
     d="m 33.679744,51.877696 c -6.014819,-1.143089 -11.03987,-4.814343 -13.675273,-9.991022 -0.91686,-1.800975 -1.661452,-4.083159 -1.839653,-5.638561 -0.07902,-0.68972 -0.137641,-5.026582 -0.138282,-10.230352 -0.0012,-10.038942 0.01047,-10.2068 0.888499,-12.741222 2.124423,-6.1321214 7.167303,-10.7513469 13.389647,-12.2647774 3.103245,-0.75478709 9.397939,-0.74720926 12.419784,0.014952 5.458638,1.3767615 9.923374,4.9512808 12.415377,9.9398944 0.790972,1.583407 1.542743,4.000481 1.695567,5.451549 0.187405,1.779404 0.178835,18.300863 -0.01029,19.853029 -0.172528,1.415897 -0.952817,3.906418 -1.679602,5.360943 -0.87563,1.752411 -1.981034,3.262442 -3.526836,4.817813 -2.68286,2.699465 -5.792581,4.429314 -9.504955,5.287333 -1.306784,0.302029 -9.036251,0.406054 -10.433977,0.140421 z"
     id="path11"
     inkscape:connector-curvature="0"
     transform="matrix(93.285714,0,0,93.285714,0,-34.285714)" /></svg>